<mxfile host="app.diagrams.net" modified="2023-09-13T10:46:18.530Z" agent="Mozilla/5.0 (Windows NT 10.0; Win64; x64) AppleWebKit/537.36 (KHTML, like Gecko) Chrome/116.0.0.0 Safari/537.36" etag="duk4bs6RAJvwU95rHhDi" version="21.7.4" type="device">
  <diagram name="Page-1" id="DtW9dGnuzczb5X8nfKc1">
    <mxGraphModel dx="1290" dy="577" grid="1" gridSize="10" guides="1" tooltips="1" connect="1" arrows="1" fold="1" page="1" pageScale="1" pageWidth="850" pageHeight="1100" background="none" math="0" shadow="0">
      <root>
        <mxCell id="0" />
        <mxCell id="1" parent="0" />
        <mxCell id="EkQbmf9CsY_2XuU_d-L4-58" value="" style="rounded=0;whiteSpace=wrap;html=1;" parent="1" vertex="1">
          <mxGeometry x="10" y="20" width="780" height="580" as="geometry" />
        </mxCell>
        <mxCell id="W_Ywc_AMQoEcLQbsiUDs-1" style="edgeStyle=orthogonalEdgeStyle;rounded=0;orthogonalLoop=1;jettySize=auto;html=1;exitX=0.5;exitY=1;exitDx=0;exitDy=0;entryX=0.5;entryY=0;entryDx=0;entryDy=0;" parent="1" source="EkQbmf9CsY_2XuU_d-L4-3" target="CqlTEoPzuxd2ch3mmdPc-1" edge="1">
          <mxGeometry relative="1" as="geometry" />
        </mxCell>
        <mxCell id="G3xPfZp_mbd4AMyYl-mX-4" style="edgeStyle=orthogonalEdgeStyle;rounded=0;orthogonalLoop=1;jettySize=auto;html=1;exitX=1;exitY=0.5;exitDx=0;exitDy=0;" edge="1" parent="1" source="EkQbmf9CsY_2XuU_d-L4-3" target="EkQbmf9CsY_2XuU_d-L4-15">
          <mxGeometry relative="1" as="geometry" />
        </mxCell>
        <mxCell id="EkQbmf9CsY_2XuU_d-L4-3" value="" style="rounded=0;whiteSpace=wrap;html=1;" parent="1" vertex="1">
          <mxGeometry x="190" y="140" width="150" height="170" as="geometry" />
        </mxCell>
        <mxCell id="EkQbmf9CsY_2XuU_d-L4-4" value="&lt;b&gt;&lt;u&gt;URL Feature Extraction&lt;/u&gt;&lt;/b&gt;" style="text;strokeColor=none;align=center;fillColor=none;html=1;verticalAlign=middle;whiteSpace=wrap;rounded=0;" parent="1" vertex="1">
          <mxGeometry x="205" y="140" width="120" height="30" as="geometry" />
        </mxCell>
        <mxCell id="EkQbmf9CsY_2XuU_d-L4-5" value="" style="rounded=0;whiteSpace=wrap;html=1;" parent="1" vertex="1">
          <mxGeometry x="200" y="220" width="130" height="40" as="geometry" />
        </mxCell>
        <mxCell id="EkQbmf9CsY_2XuU_d-L4-8" value="&lt;b&gt;Feature Extraction&lt;/b&gt;" style="text;strokeColor=none;align=center;fillColor=none;html=1;verticalAlign=middle;whiteSpace=wrap;rounded=0;" parent="1" vertex="1">
          <mxGeometry x="210" y="225" width="110" height="30" as="geometry" />
        </mxCell>
        <mxCell id="EkQbmf9CsY_2XuU_d-L4-15" value="" style="rounded=0;whiteSpace=wrap;html=1;" parent="1" vertex="1">
          <mxGeometry x="380" y="140" width="150" height="220" as="geometry" />
        </mxCell>
        <mxCell id="EkQbmf9CsY_2XuU_d-L4-16" value="&lt;b&gt;&lt;u&gt;Dataset Splitting&lt;/u&gt;&lt;/b&gt;" style="text;strokeColor=none;align=center;fillColor=none;html=1;verticalAlign=middle;whiteSpace=wrap;rounded=0;" parent="1" vertex="1">
          <mxGeometry x="395" y="140" width="120" height="30" as="geometry" />
        </mxCell>
        <mxCell id="EkQbmf9CsY_2XuU_d-L4-18" value="" style="rounded=0;whiteSpace=wrap;html=1;" parent="1" vertex="1">
          <mxGeometry x="390" y="200" width="130" height="40" as="geometry" />
        </mxCell>
        <mxCell id="EkQbmf9CsY_2XuU_d-L4-48" style="edgeStyle=orthogonalEdgeStyle;rounded=0;orthogonalLoop=1;jettySize=auto;html=1;exitX=0.5;exitY=1;exitDx=0;exitDy=0;entryX=0;entryY=0.5;entryDx=0;entryDy=0;" parent="1" source="EkQbmf9CsY_2XuU_d-L4-19" target="EkQbmf9CsY_2XuU_d-L4-45" edge="1">
          <mxGeometry relative="1" as="geometry">
            <Array as="points">
              <mxPoint x="455" y="380" />
              <mxPoint x="390" y="380" />
              <mxPoint x="390" y="482" />
            </Array>
          </mxGeometry>
        </mxCell>
        <mxCell id="EkQbmf9CsY_2XuU_d-L4-19" value="" style="rounded=0;whiteSpace=wrap;html=1;" parent="1" vertex="1">
          <mxGeometry x="390" y="280" width="130" height="40" as="geometry" />
        </mxCell>
        <mxCell id="EkQbmf9CsY_2XuU_d-L4-20" value="&lt;b&gt;Training Data&lt;/b&gt;" style="text;strokeColor=none;align=center;fillColor=none;html=1;verticalAlign=middle;whiteSpace=wrap;rounded=0;" parent="1" vertex="1">
          <mxGeometry x="400" y="205" width="110" height="30" as="geometry" />
        </mxCell>
        <mxCell id="EkQbmf9CsY_2XuU_d-L4-21" value="&lt;b&gt;Testing Data&lt;/b&gt;" style="text;strokeColor=none;align=center;fillColor=none;html=1;verticalAlign=middle;whiteSpace=wrap;rounded=0;" parent="1" vertex="1">
          <mxGeometry x="400" y="285" width="110" height="30" as="geometry" />
        </mxCell>
        <mxCell id="EkQbmf9CsY_2XuU_d-L4-23" value="" style="rounded=0;whiteSpace=wrap;html=1;" parent="1" vertex="1">
          <mxGeometry x="570" y="100" width="190" height="290" as="geometry" />
        </mxCell>
        <mxCell id="EkQbmf9CsY_2XuU_d-L4-24" value="&lt;b&gt;&lt;u&gt;BiLSTM Classifier Model&lt;/u&gt;&lt;/b&gt;" style="text;strokeColor=none;align=center;fillColor=none;html=1;verticalAlign=middle;whiteSpace=wrap;rounded=0;" parent="1" vertex="1">
          <mxGeometry x="585" y="104" width="120" height="30" as="geometry" />
        </mxCell>
        <mxCell id="G3xPfZp_mbd4AMyYl-mX-18" style="edgeStyle=orthogonalEdgeStyle;rounded=0;orthogonalLoop=1;jettySize=auto;html=1;exitX=0.5;exitY=1;exitDx=0;exitDy=0;entryX=0.5;entryY=0;entryDx=0;entryDy=0;" edge="1" parent="1" source="EkQbmf9CsY_2XuU_d-L4-30" target="G3xPfZp_mbd4AMyYl-mX-12">
          <mxGeometry relative="1" as="geometry" />
        </mxCell>
        <mxCell id="EkQbmf9CsY_2XuU_d-L4-30" value="&lt;b style=&quot;border-color: var(--border-color);&quot;&gt;BiLSTM&lt;/b&gt;" style="rounded=0;whiteSpace=wrap;html=1;" parent="1" vertex="1">
          <mxGeometry x="580" y="140" width="130" height="40" as="geometry" />
        </mxCell>
        <mxCell id="EkQbmf9CsY_2XuU_d-L4-43" style="edgeStyle=orthogonalEdgeStyle;rounded=0;orthogonalLoop=1;jettySize=auto;html=1;exitX=1;exitY=0.5;exitDx=0;exitDy=0;entryX=0;entryY=0.5;entryDx=0;entryDy=0;" parent="1" source="EkQbmf9CsY_2XuU_d-L4-18" target="EkQbmf9CsY_2XuU_d-L4-30" edge="1">
          <mxGeometry relative="1" as="geometry" />
        </mxCell>
        <mxCell id="EkQbmf9CsY_2XuU_d-L4-45" value="" style="rounded=0;whiteSpace=wrap;html=1;" parent="1" vertex="1">
          <mxGeometry x="418" y="402" width="150" height="160" as="geometry" />
        </mxCell>
        <mxCell id="EkQbmf9CsY_2XuU_d-L4-46" value="&lt;b&gt;&lt;u&gt;Model Evaluation&lt;/u&gt;&lt;/b&gt;" style="text;strokeColor=none;align=center;fillColor=none;html=1;verticalAlign=middle;whiteSpace=wrap;rounded=0;" parent="1" vertex="1">
          <mxGeometry x="433" y="402" width="120" height="30" as="geometry" />
        </mxCell>
        <mxCell id="EkQbmf9CsY_2XuU_d-L4-51" value="" style="shape=datastore;whiteSpace=wrap;html=1;fillColor=#003366;" parent="1" vertex="1">
          <mxGeometry x="50" y="180" width="90" height="120" as="geometry" />
        </mxCell>
        <mxCell id="EkQbmf9CsY_2XuU_d-L4-52" value="Malicious or Benign" style="label;whiteSpace=wrap;html=1;align=center;verticalAlign=bottom;spacingLeft=0;spacingBottom=4;imageAlign=center;imageVerticalAlign=top;image=img/clipart/Gear_128x128.png" parent="1" vertex="1">
          <mxGeometry x="428" y="452" width="130" height="80" as="geometry" />
        </mxCell>
        <mxCell id="EkQbmf9CsY_2XuU_d-L4-53" value="&lt;font color=&quot;#ffffff&quot;&gt;&lt;b&gt;PhishTank URL Dataset&lt;/b&gt;&lt;/font&gt;" style="text;strokeColor=none;align=center;fillColor=none;html=1;verticalAlign=middle;whiteSpace=wrap;rounded=0;" parent="1" vertex="1">
          <mxGeometry x="65" y="235" width="60" height="30" as="geometry" />
        </mxCell>
        <mxCell id="EkQbmf9CsY_2XuU_d-L4-56" style="edgeStyle=orthogonalEdgeStyle;rounded=0;orthogonalLoop=1;jettySize=auto;html=1;exitX=1;exitY=0.5;exitDx=0;exitDy=0;entryX=0;entryY=0.5;entryDx=0;entryDy=0;" parent="1" source="EkQbmf9CsY_2XuU_d-L4-51" target="EkQbmf9CsY_2XuU_d-L4-5" edge="1">
          <mxGeometry relative="1" as="geometry" />
        </mxCell>
        <mxCell id="G3xPfZp_mbd4AMyYl-mX-5" style="edgeStyle=orthogonalEdgeStyle;rounded=0;orthogonalLoop=1;jettySize=auto;html=1;exitX=1;exitY=0.5;exitDx=0;exitDy=0;entryX=1;entryY=0;entryDx=0;entryDy=0;" edge="1" parent="1" source="CqlTEoPzuxd2ch3mmdPc-1" target="EkQbmf9CsY_2XuU_d-L4-30">
          <mxGeometry relative="1" as="geometry">
            <mxPoint x="710" y="150" as="targetPoint" />
            <Array as="points">
              <mxPoint x="400" y="500" />
              <mxPoint x="400" y="580" />
              <mxPoint x="780" y="580" />
              <mxPoint x="780" y="110" />
              <mxPoint x="710" y="110" />
            </Array>
          </mxGeometry>
        </mxCell>
        <mxCell id="CqlTEoPzuxd2ch3mmdPc-1" value="" style="rounded=0;whiteSpace=wrap;html=1;" parent="1" vertex="1">
          <mxGeometry x="30" y="420" width="345" height="160" as="geometry" />
        </mxCell>
        <mxCell id="W_Ywc_AMQoEcLQbsiUDs-2" value="&lt;b&gt;&lt;u&gt;fastText Word Embedding&lt;/u&gt;&lt;/b&gt;" style="text;strokeColor=none;align=center;fillColor=none;html=1;verticalAlign=middle;whiteSpace=wrap;rounded=0;" parent="1" vertex="1">
          <mxGeometry x="120" y="415" width="170" height="30" as="geometry" />
        </mxCell>
        <mxCell id="W_Ywc_AMQoEcLQbsiUDs-5" style="edgeStyle=orthogonalEdgeStyle;rounded=0;orthogonalLoop=1;jettySize=auto;html=1;exitX=0.5;exitY=1;exitDx=0;exitDy=0;entryX=0.5;entryY=0;entryDx=0;entryDy=0;" parent="1" source="W_Ywc_AMQoEcLQbsiUDs-3" target="W_Ywc_AMQoEcLQbsiUDs-4" edge="1">
          <mxGeometry relative="1" as="geometry" />
        </mxCell>
        <mxCell id="W_Ywc_AMQoEcLQbsiUDs-3" value="&lt;div&gt;&lt;b style=&quot;&quot;&gt;&lt;u&gt;protocol&lt;/u&gt; &lt;u&gt;subdomain+domain&lt;/u&gt;&lt;span style=&quot;white-space: pre;&quot;&gt;&amp;nbsp; &lt;/span&gt;&lt;u&gt;tld&lt;/u&gt;&lt;/b&gt;&lt;/div&gt;&lt;div&gt;https www sfr-monespaceclient com&lt;/div&gt;" style="rounded=0;whiteSpace=wrap;html=1;" parent="1" vertex="1">
          <mxGeometry x="125" y="455" width="220" height="35" as="geometry" />
        </mxCell>
        <mxCell id="W_Ywc_AMQoEcLQbsiUDs-4" value="[[-0.13942215 0.29600132 ... 0.02591697 0.30236375 -0.4028995],[-1.40671968e-01 1.21783733e-01 ... -3.80317159e-02 6.25730529e-02]]" style="rounded=1;whiteSpace=wrap;html=1;" parent="1" vertex="1">
          <mxGeometry x="120" y="510" width="230" height="60" as="geometry" />
        </mxCell>
        <mxCell id="W_Ywc_AMQoEcLQbsiUDs-6" value="URL Features" style="text;html=1;strokeColor=none;fillColor=none;align=center;verticalAlign=middle;whiteSpace=wrap;rounded=0;fontStyle=1" parent="1" vertex="1">
          <mxGeometry x="54" y="455" width="50" height="40" as="geometry" />
        </mxCell>
        <mxCell id="W_Ywc_AMQoEcLQbsiUDs-12" value="&lt;font style=&quot;font-size: 12px;&quot;&gt;word embedding&lt;/font&gt;" style="text;html=1;strokeColor=none;fillColor=none;align=center;verticalAlign=middle;whiteSpace=wrap;rounded=0;fontStyle=1" parent="1" vertex="1">
          <mxGeometry x="52" y="520" width="50" height="40" as="geometry" />
        </mxCell>
        <mxCell id="G3xPfZp_mbd4AMyYl-mX-3" style="edgeStyle=orthogonalEdgeStyle;rounded=0;orthogonalLoop=1;jettySize=auto;html=1;exitX=0.5;exitY=1;exitDx=0;exitDy=0;" edge="1" parent="1" source="EkQbmf9CsY_2XuU_d-L4-3" target="EkQbmf9CsY_2XuU_d-L4-3">
          <mxGeometry relative="1" as="geometry" />
        </mxCell>
        <mxCell id="G3xPfZp_mbd4AMyYl-mX-19" style="edgeStyle=orthogonalEdgeStyle;rounded=0;orthogonalLoop=1;jettySize=auto;html=1;exitX=0.5;exitY=1;exitDx=0;exitDy=0;entryX=0.395;entryY=0.517;entryDx=0;entryDy=0;entryPerimeter=0;" edge="1" parent="1" source="G3xPfZp_mbd4AMyYl-mX-12" target="EkQbmf9CsY_2XuU_d-L4-23">
          <mxGeometry relative="1" as="geometry" />
        </mxCell>
        <mxCell id="G3xPfZp_mbd4AMyYl-mX-12" value="&lt;b&gt;Classification Output&lt;/b&gt;" style="rounded=0;whiteSpace=wrap;html=1;" vertex="1" parent="1">
          <mxGeometry x="580" y="195" width="130" height="40" as="geometry" />
        </mxCell>
        <mxCell id="G3xPfZp_mbd4AMyYl-mX-20" style="edgeStyle=orthogonalEdgeStyle;rounded=0;orthogonalLoop=1;jettySize=auto;html=1;exitX=0.5;exitY=1;exitDx=0;exitDy=0;entryX=0.5;entryY=0;entryDx=0;entryDy=0;" edge="1" parent="1" source="G3xPfZp_mbd4AMyYl-mX-15" target="G3xPfZp_mbd4AMyYl-mX-16">
          <mxGeometry relative="1" as="geometry" />
        </mxCell>
        <mxCell id="G3xPfZp_mbd4AMyYl-mX-15" value="&lt;b&gt;Validation Phase&lt;/b&gt;" style="rounded=0;whiteSpace=wrap;html=1;" vertex="1" parent="1">
          <mxGeometry x="580" y="250" width="130" height="40" as="geometry" />
        </mxCell>
        <mxCell id="G3xPfZp_mbd4AMyYl-mX-17" style="edgeStyle=orthogonalEdgeStyle;rounded=0;orthogonalLoop=1;jettySize=auto;html=1;exitX=0.5;exitY=1;exitDx=0;exitDy=0;entryX=1;entryY=0.5;entryDx=0;entryDy=0;" edge="1" parent="1" source="G3xPfZp_mbd4AMyYl-mX-16" target="EkQbmf9CsY_2XuU_d-L4-45">
          <mxGeometry relative="1" as="geometry" />
        </mxCell>
        <mxCell id="G3xPfZp_mbd4AMyYl-mX-26" style="edgeStyle=orthogonalEdgeStyle;rounded=0;orthogonalLoop=1;jettySize=auto;html=1;exitX=1;exitY=0.5;exitDx=0;exitDy=0;entryX=1;entryY=0.5;entryDx=0;entryDy=0;" edge="1" parent="1" source="G3xPfZp_mbd4AMyYl-mX-16" target="G3xPfZp_mbd4AMyYl-mX-21">
          <mxGeometry relative="1" as="geometry">
            <Array as="points">
              <mxPoint x="703" y="360" />
              <mxPoint x="735" y="360" />
            </Array>
          </mxGeometry>
        </mxCell>
        <mxCell id="G3xPfZp_mbd4AMyYl-mX-16" value="Is Satisfactory?" style="rhombus;whiteSpace=wrap;html=1;" vertex="1" parent="1">
          <mxGeometry x="587.5" y="310" width="115" height="70" as="geometry" />
        </mxCell>
        <mxCell id="G3xPfZp_mbd4AMyYl-mX-25" style="edgeStyle=orthogonalEdgeStyle;rounded=0;orthogonalLoop=1;jettySize=auto;html=1;exitX=0;exitY=0.5;exitDx=0;exitDy=0;entryX=1;entryY=0.5;entryDx=0;entryDy=0;" edge="1" parent="1" source="G3xPfZp_mbd4AMyYl-mX-21" target="EkQbmf9CsY_2XuU_d-L4-30">
          <mxGeometry relative="1" as="geometry">
            <Array as="points">
              <mxPoint x="735" y="160" />
            </Array>
          </mxGeometry>
        </mxCell>
        <mxCell id="G3xPfZp_mbd4AMyYl-mX-21" value="" style="rounded=0;whiteSpace=wrap;html=1;direction=south;" vertex="1" parent="1">
          <mxGeometry x="717.5" y="170" width="35" height="170" as="geometry" />
        </mxCell>
        <mxCell id="G3xPfZp_mbd4AMyYl-mX-22" value="&lt;span style=&quot;border-color: var(--border-color);&quot;&gt;Hyperparameter Tuning&lt;/span&gt;" style="text;html=1;align=center;verticalAlign=middle;resizable=0;points=[];autosize=1;strokeColor=none;fillColor=none;rotation=270;" vertex="1" parent="1">
          <mxGeometry x="660" y="240" width="150" height="30" as="geometry" />
        </mxCell>
      </root>
    </mxGraphModel>
  </diagram>
</mxfile>
